<svg width="393" height="170" viewBox="0 0 393 170" fill="none" xmlns="http://www.w3.org/2000/svg">
<g clip-path="url(#clip0_247_60)">
<path d="M359.609 156.961C368.131 148.452 368.131 134.655 359.609 126.145C351.087 117.636 337.271 117.636 328.749 126.145C320.227 134.655 320.227 148.452 328.749 156.961C337.271 165.471 351.087 165.471 359.609 156.961Z" fill="#2F2E41"/>
<path d="M344.057 143.557C348.079 142.669 350.618 138.693 349.727 134.677C348.837 130.661 344.855 128.126 340.834 129.015C336.812 129.904 334.274 133.88 335.164 137.896C336.054 141.912 340.036 144.446 344.057 143.557Z" fill="white"/>
<path d="M339.962 136.787C341.302 136.49 342.148 135.165 341.852 133.826C341.555 132.488 340.228 131.643 338.887 131.939C337.547 132.235 336.7 133.561 336.997 134.899C337.294 136.238 338.621 137.083 339.962 136.787Z" fill="#3F3D56"/>
<path d="M343.317 126.822C334.392 126.805 328.127 125.214 328.142 117.14C328.157 109.066 335.404 102.535 344.329 102.551C353.253 102.568 360.476 109.126 360.461 117.2C360.446 125.273 352.241 126.838 343.317 126.822Z" fill="#EF6965"/>
<path d="M378.382 145.195C375.822 154.063 368.347 160.27 360.55 165.543C359.462 166.28 358.373 166.999 357.283 167.702C357.276 167.705 357.268 167.712 357.261 167.715C357.209 167.749 357.156 167.782 357.107 167.816C356.882 167.961 356.658 168.106 356.435 168.249L356.557 168.304C356.557 168.304 356.677 168.368 356.546 168.314C356.507 168.298 356.466 168.283 356.426 168.266C351.897 166.442 347.287 164.484 343.816 161.066C340.215 157.518 338.111 151.952 340.061 147.29C340.317 146.68 340.641 146.1 341.026 145.561C341.184 145.335 341.354 145.118 341.532 144.906C342.607 143.595 344.013 142.594 345.604 142.006C347.196 141.417 348.915 141.263 350.586 141.558C352.257 141.853 353.82 142.588 355.112 143.686C356.405 144.784 357.381 146.205 357.941 147.805C358.514 142.48 354.116 138.019 349.884 134.727C345.65 131.437 340.839 127.855 340.02 122.559C339.563 119.612 340.589 116.756 342.459 114.464C342.517 114.394 342.574 114.325 342.634 114.257C344.909 111.587 348.11 109.873 351.596 109.456C358.088 108.783 364.395 112.214 369.111 116.721C376.702 123.974 381.292 135.113 378.382 145.195Z" fill="#E6E6E6"/>
<path d="M366.178 133.597C367.424 135.533 368.381 137.639 369.018 139.851C369.557 141.827 369.797 143.873 369.729 145.921C369.556 150.134 368.371 154.243 366.276 157.904C364.697 160.681 362.774 163.248 360.55 165.543C359.462 166.28 358.373 166.999 357.283 167.702C357.276 167.705 357.268 167.712 357.261 167.715C357.209 167.749 357.156 167.782 357.107 167.816C356.882 167.961 356.658 168.106 356.435 168.249C356.435 168.249 356.677 168.368 356.546 168.314C356.507 168.298 356.466 168.283 356.426 168.267C356.832 164.943 356.435 161.571 355.267 158.433C354.099 155.294 352.194 152.481 349.713 150.229C347.226 148.011 344.25 146.412 341.026 145.561C341.184 145.335 341.354 145.119 341.532 144.906C342.777 145.255 343.988 145.713 345.153 146.274C349.315 148.27 352.723 151.551 354.872 155.631C356.801 159.336 357.631 163.514 357.265 167.674C357.451 167.505 357.637 167.333 357.818 167.163C361.26 163.959 364.317 160.281 366.386 156.036C368.181 152.441 369.063 148.461 368.955 144.446C368.786 140.068 367.039 136.012 364.51 132.482C361.737 128.716 358.463 125.345 354.776 122.465C351.06 119.493 346.995 116.987 342.67 115.002C342.572 114.956 342.496 114.875 342.457 114.775C342.417 114.675 342.418 114.564 342.459 114.464C342.488 114.375 342.551 114.301 342.634 114.257C342.677 114.239 342.723 114.23 342.77 114.232C342.817 114.234 342.863 114.247 342.904 114.269C343.438 114.514 343.968 114.763 344.494 115.023C348.876 117.185 352.971 119.883 356.686 123.053C360.275 126.109 363.654 129.599 366.178 133.597Z" fill="white"/>
<path d="M164.741 169.772C167.792 169.772 170.266 168.845 170.266 167.703C170.266 166.56 167.792 165.634 164.741 165.634C161.69 165.634 159.217 166.56 159.217 167.703C159.217 168.845 161.69 169.772 164.741 169.772Z" fill="#2F2E41"/>
<path d="M178 169.496C181.051 169.496 183.525 168.57 183.525 167.427C183.525 166.285 181.051 165.358 178 165.358C174.949 165.358 172.475 166.285 172.475 167.427C172.475 168.57 174.949 169.496 178 169.496Z" fill="#2F2E41"/>
<path d="M195.602 134.726C200.822 131.721 204.289 127.958 203.344 126.321C202.399 124.685 197.401 125.794 192.18 128.799C186.96 131.805 183.493 135.567 184.438 137.204C185.383 138.84 190.381 137.731 195.602 134.726Z" fill="#2F2E41"/>
<path d="M190.701 142.094C192.631 130.215 184.553 119.023 172.656 117.095C160.76 115.167 149.551 123.234 147.621 135.113C145.69 146.992 153.769 158.185 165.665 160.112C177.562 162.04 188.77 153.973 190.701 142.094Z" fill="#2F2E41"/>
<path d="M165.846 155.705H159.217V167.565H165.846V155.705Z" fill="#2F2E41"/>
<path d="M179.105 155.705H172.475V167.565H179.105V155.705Z" fill="#2F2E41"/>
<path d="M169.713 140.535C173.832 140.535 177.171 137.2 177.171 133.087C177.171 128.974 173.832 125.64 169.713 125.64C165.594 125.64 162.255 128.974 162.255 133.087C162.255 137.2 165.594 140.535 169.713 140.535Z" fill="white"/>
<path d="M169.713 135.57C171.086 135.57 172.199 134.458 172.199 133.087C172.199 131.716 171.086 130.605 169.713 130.605C168.34 130.605 167.227 131.716 167.227 133.087C167.227 134.458 168.34 135.57 169.713 135.57Z" fill="#3F3D56"/>
<path d="M147.993 118.34C146.231 110.46 151.863 102.498 160.573 100.556C169.283 98.6138 177.773 103.427 179.535 111.307C181.297 119.186 175.524 122.092 166.814 124.035C158.104 125.977 149.755 126.219 147.993 118.34Z" fill="#E6E6E6"/>
<path d="M154.44 133.162C155.251 131.455 151.495 127.981 146.05 125.403C140.605 122.824 135.534 122.118 134.724 123.824C133.913 125.531 137.67 129.005 143.114 131.583C148.559 134.162 153.63 134.869 154.44 133.162Z" fill="#2F2E41"/>
<path d="M158.442 146.465C158.442 148.598 163.941 152.809 170.043 152.809C176.146 152.809 181.867 146.805 181.867 144.672C181.867 142.539 176.146 145.086 170.043 145.086C163.941 145.086 158.442 144.332 158.442 146.465Z" fill="white"/>
<path d="M245.252 169.772C248.303 169.772 250.776 168.845 250.776 167.703C250.776 166.56 248.303 165.634 245.252 165.634C242.201 165.634 239.727 166.56 239.727 167.703C239.727 168.845 242.201 169.772 245.252 169.772Z" fill="#2F2E41"/>
<path d="M231.993 169.496C235.044 169.496 237.518 168.57 237.518 167.427C237.518 166.285 235.044 165.358 231.993 165.358C228.942 165.358 226.469 166.285 226.469 167.427C226.469 168.57 228.942 169.496 231.993 169.496Z" fill="#2F2E41"/>
<path d="M225.555 137.204C226.5 135.567 223.033 131.804 217.813 128.799C212.592 125.794 207.594 124.685 206.649 126.321C205.705 127.958 209.171 131.72 214.391 134.726C219.612 137.731 224.61 138.84 225.555 137.204Z" fill="#2F2E41"/>
<path d="M240.832 160.394C252.884 160.394 262.654 150.638 262.654 138.604C262.654 126.57 252.884 116.814 240.832 116.814C228.78 116.814 219.01 126.57 219.01 138.604C219.01 150.638 228.78 160.394 240.832 160.394Z" fill="#2F2E41"/>
<path d="M250.776 155.705H244.147V167.565H250.776V155.705Z" fill="#2F2E41"/>
<path d="M237.518 155.705H230.888V167.565H237.518V155.705Z" fill="#2F2E41"/>
<path d="M235.72 140.535C239.839 140.535 243.178 137.2 243.178 133.087C243.178 128.974 239.839 125.64 235.72 125.64C231.601 125.64 228.262 128.974 228.262 133.087C228.262 137.2 231.601 140.535 235.72 140.535Z" fill="white"/>
<path d="M233.923 133.824C234.897 132.853 234.903 131.282 233.937 130.316C232.97 129.35 231.397 129.355 230.423 130.327C229.449 131.299 229.443 132.869 230.409 133.835C231.375 134.801 232.948 134.796 233.923 133.824Z" fill="#3F3D56"/>
<path d="M243.179 124.035C234.469 122.093 228.697 119.186 230.459 111.307C232.221 103.427 240.71 98.6138 249.42 100.556C258.13 102.498 263.762 110.46 262 118.34C260.238 126.219 251.889 125.977 243.179 124.035Z" fill="#EF6965"/>
<path d="M263.652 155.214C265.48 154.729 265.708 149.621 264.161 143.806C262.614 137.99 259.878 133.669 258.05 134.154C256.222 134.639 255.993 139.746 257.54 145.562C259.087 151.377 261.823 155.698 263.652 155.214Z" fill="#2F2E41"/>
<path d="M235.889 145.086C231.882 145.086 228.126 142.539 228.126 144.672C228.126 146.805 231.882 152.809 235.889 152.809C239.895 152.809 243.505 148.598 243.505 146.465C243.505 144.332 239.895 145.086 235.889 145.086Z" fill="white"/>
<path d="M207.687 102.475H205.749C204.013 102.473 202.349 101.784 201.121 100.558C199.894 99.332 199.203 97.6701 199.201 95.9366V94.312C199.201 90.2881 199.965 86.9189 201.471 84.298C203.296 81.2493 205.425 78.3927 207.826 75.7719C209.42 74.1714 210.866 72.4309 212.147 70.5713C213.066 69.1266 213.54 67.4444 213.511 65.7331C213.511 61.6966 210.878 59.7343 205.46 59.7343C202.454 59.7682 199.468 60.2158 196.585 61.0644C195.473 61.3813 194.303 61.4362 193.166 61.2248C192.03 61.0134 190.958 60.5415 190.035 59.8461C189.112 59.1508 188.363 58.251 187.847 57.2176C187.331 56.1842 187.063 55.0454 187.063 53.8909V50.6022C187.057 49.1865 187.462 47.7993 188.229 46.6088C188.996 45.4183 190.093 44.4757 191.386 43.8951C196.478 41.7254 201.969 40.6468 207.504 40.729C213.303 40.729 218.538 41.7016 223.063 43.6194C227.597 45.5417 231.179 48.2523 233.709 51.6761C236.232 55.0757 237.573 59.2055 237.528 63.4366C237.528 67.98 236.286 71.9372 233.836 75.1982C231.413 78.4261 227.939 81.9599 223.511 85.7019C221.179 87.6392 218.968 89.7187 216.892 91.9285C215.552 93.3705 214.604 95.132 214.14 97.0443C213.882 98.5656 213.092 99.946 211.91 100.94C210.729 101.935 209.232 102.478 207.687 102.475Z" fill="#EF6965"/>
<path d="M206.61 133.223H206.354C203.137 133.221 200.052 131.943 197.778 129.671C195.504 127.398 194.226 124.317 194.226 121.104C194.226 117.892 195.504 114.811 197.778 112.538C200.052 110.266 203.137 108.988 206.354 108.986H206.61C208.204 108.985 209.783 109.298 211.256 109.907C212.73 110.515 214.068 111.408 215.196 112.533C216.324 113.658 217.219 114.994 217.829 116.465C218.439 117.936 218.753 119.512 218.753 121.104C218.753 122.697 218.439 124.273 217.829 125.744C217.219 127.214 216.324 128.551 215.196 129.676C214.068 130.801 212.73 131.694 211.256 132.302C209.783 132.911 208.204 133.224 206.61 133.223Z" fill="#EF6965"/>
<path d="M285.479 170H127.898C127.763 170 127.634 169.947 127.539 169.852C127.444 169.757 127.391 169.628 127.391 169.494C127.391 169.36 127.444 169.231 127.539 169.136C127.634 169.042 127.763 168.988 127.898 168.988H285.479C285.613 168.988 285.742 169.042 285.837 169.136C285.932 169.231 285.986 169.36 285.986 169.494C285.986 169.628 285.932 169.757 285.837 169.852C285.742 169.947 285.613 170 285.479 170Z" fill="#CCCCCC"/>
<path d="M391.884 170H307.773C307.639 170 307.51 169.947 307.415 169.852C307.32 169.757 307.267 169.628 307.267 169.494C307.267 169.36 307.32 169.231 307.415 169.136C307.51 169.042 307.639 168.988 307.773 168.988H391.884C392.019 168.988 392.147 169.042 392.242 169.136C392.337 169.231 392.391 169.36 392.391 169.494C392.391 169.628 392.337 169.757 392.242 169.852C392.147 169.947 392.019 170 391.884 170Z" fill="#CCCCCC"/>
<path d="M339.68 155.221C345.705 155.104 350.559 153.477 350.522 151.589C350.485 149.7 345.571 148.265 339.546 148.382C333.521 148.5 328.667 150.126 328.704 152.015C328.741 153.903 333.655 155.339 339.68 155.221Z" fill="#2F2E41"/>
<path d="M334.203 75.3871H321.029C320.357 75.3864 319.713 75.1196 319.238 74.6453C318.764 74.1711 318.496 73.5281 318.496 72.8574V59.7026C318.496 59.0319 318.764 58.3889 319.238 57.9147C319.713 57.4404 320.357 57.1736 321.029 57.1729H334.203C334.875 57.1736 335.519 57.4404 335.994 57.9147C336.469 58.3889 336.736 59.0319 336.737 59.7026V72.8574C336.736 73.5281 336.469 74.1711 335.994 74.6453C335.519 75.1196 334.875 75.3864 334.203 75.3871ZM321.029 58.1848C320.626 58.1852 320.24 58.3453 319.955 58.6298C319.67 58.9144 319.509 59.3002 319.509 59.7026V72.8574C319.509 73.2598 319.67 73.6456 319.955 73.9302C320.24 74.2147 320.626 74.3748 321.029 74.3752H334.203C334.606 74.3748 334.992 74.2147 335.277 73.9302C335.562 73.6456 335.723 73.2598 335.723 72.8574V59.7026C335.723 59.3002 335.562 58.9144 335.277 58.6298C334.992 58.3453 334.606 58.1852 334.203 58.1848H321.029Z" fill="#F2F2F2"/>
<path d="M340.283 66.7856H327.109C326.438 66.7848 325.794 66.518 325.319 66.0438C324.844 65.5695 324.577 64.9265 324.576 64.2558V51.1011C324.577 50.4304 324.844 49.7874 325.319 49.3131C325.794 48.8388 326.438 48.5721 327.109 48.5713H340.283C340.955 48.5721 341.599 48.8388 342.074 49.3131C342.549 49.7874 342.816 50.4304 342.817 51.1011V64.2558C342.816 64.9265 342.549 65.5695 342.074 66.0438C341.599 66.518 340.955 66.7848 340.283 66.7856ZM327.109 49.5832C326.706 49.5836 326.32 49.7437 326.035 50.0282C325.75 50.3128 325.59 50.6986 325.589 51.1011V64.2558C325.59 64.6582 325.75 65.0441 326.035 65.3286C326.32 65.6132 326.706 65.7732 327.109 65.7737H340.283C340.686 65.7732 341.073 65.6132 341.358 65.3286C341.643 65.0441 341.803 64.6582 341.803 64.2558V51.1011C341.803 50.6986 341.643 50.3128 341.358 50.0282C341.073 49.7437 340.686 49.5836 340.283 49.5832H327.109Z" fill="#F2F2F2"/>
<path d="M236.411 24.7914H223.238C222.566 24.7907 221.922 24.5239 221.447 24.0496C220.972 23.5754 220.705 22.9324 220.704 22.2617V9.10691C220.705 8.43621 220.972 7.79321 221.447 7.31895C221.922 6.8447 222.566 6.57792 223.238 6.57715H236.411C237.083 6.57792 237.727 6.8447 238.202 7.31895C238.677 7.79321 238.944 8.43621 238.945 9.10691V22.2617C238.944 22.9324 238.677 23.5754 238.202 24.0496C237.727 24.5239 237.083 24.7907 236.411 24.7914ZM223.238 7.58905C222.834 7.58949 222.448 7.74955 222.163 8.03411C221.878 8.31867 221.718 8.70448 221.717 9.10691V22.2617C221.718 22.6641 221.878 23.0499 222.163 23.3345C222.448 23.619 222.834 23.7791 223.238 23.7795H236.411C236.815 23.7791 237.201 23.619 237.486 23.3345C237.771 23.0499 237.931 22.6641 237.932 22.2617V9.10691C237.931 8.70448 237.771 8.31867 237.486 8.03411C237.201 7.74955 236.815 7.58949 236.411 7.58905H223.238Z" fill="#F2F2F2"/>
<path d="M228.304 18.2143H215.13C214.459 18.2135 213.815 17.9467 213.34 17.4725C212.865 16.9982 212.598 16.3552 212.597 15.6845V2.52976C212.598 1.85906 212.865 1.21606 213.34 0.741805C213.815 0.267549 214.459 0.000767303 215.13 0H228.304C228.976 0.000767303 229.62 0.267549 230.095 0.741805C230.57 1.21606 230.837 1.85906 230.838 2.52976V15.6845C230.837 16.3552 230.57 16.9982 230.095 17.4725C229.62 17.9467 228.976 18.2135 228.304 18.2143ZM215.13 1.0119C214.727 1.01234 214.341 1.1724 214.056 1.45696C213.771 1.74152 213.611 2.12734 213.61 2.52976V15.6845C213.611 16.087 213.771 16.4728 214.056 16.7573C214.341 17.0419 214.727 17.2019 215.13 17.2024H228.304C228.707 17.2019 229.094 17.0419 229.379 16.7573C229.664 16.4728 229.824 16.087 229.824 15.6845V2.52976C229.824 2.12734 229.664 1.74152 229.379 1.45696C229.094 1.1724 228.707 1.01234 228.304 1.0119H215.13Z" fill="#F2F2F2"/>
<path d="M290.151 95.9472C291.96 95.9472 293.427 94.4823 293.427 92.6753C293.427 90.8682 291.96 89.4033 290.151 89.4033C288.341 89.4033 286.874 90.8682 286.874 92.6753C286.874 94.4823 288.341 95.9472 290.151 95.9472Z" fill="#F2F2F2"/>
<path d="M158.411 84.3105C160.221 84.3105 161.688 82.8456 161.688 81.0385C161.688 79.2315 160.221 77.7666 158.411 77.7666C156.601 77.7666 155.134 79.2315 155.134 81.0385C155.134 82.8456 156.601 84.3105 158.411 84.3105Z" fill="#F2F2F2"/>
<path d="M379.329 112.643C381.138 112.643 382.605 111.179 382.605 109.372C382.605 107.565 381.138 106.1 379.329 106.1C377.519 106.1 376.052 107.565 376.052 109.372C376.052 111.179 377.519 112.643 379.329 112.643Z" fill="#F2F2F2"/>
</g>
<path d="M19.0201 84.264L30.9157 82.6843C32.0392 82.5351 32.931 82.0293 33.5912 81.1669C34.2491 80.3075 34.5035 79.316 34.3543 78.1926C34.2051 77.0691 33.7006 76.1771 32.8409 75.5165C31.9788 74.8589 30.986 74.6048 29.8626 74.7539L17.967 76.3336C16.8435 76.4828 15.9515 76.9873 15.2909 77.8471C14.6334 78.7091 14.3792 79.7019 14.5284 80.8254C14.6776 81.9488 15.1819 82.8395 16.0413 83.4975C16.9037 84.1577 17.8966 84.4132 19.0201 84.264ZM21.1264 100.125L33.0219 98.5451C34.1454 98.3959 35.0372 97.8901 35.6975 97.0277C36.3554 96.1683 36.6098 95.1768 36.4606 94.0533C36.3114 92.9299 35.8069 92.0378 34.9471 91.3773C34.0851 90.7197 33.0923 90.4655 31.9688 90.6147L20.0732 92.1944C18.9498 92.3436 18.0577 92.8481 17.3972 93.7078C16.7396 94.5699 16.4854 95.5627 16.6346 96.6861C16.7838 97.8096 17.2881 98.7003 18.1475 99.3582C19.0099 100.018 20.0029 100.274 21.1264 100.125ZM23.2326 115.986L35.1282 114.406C36.2516 114.257 37.1435 113.751 37.8037 112.888C38.4616 112.029 38.716 111.038 38.5668 109.914C38.4176 108.791 37.9131 107.899 37.0534 107.238C36.1913 106.58 35.1985 106.326 34.0751 106.475L22.1795 108.055C21.056 108.204 20.164 108.709 19.5034 109.569C18.8458 110.431 18.5917 111.423 18.7408 112.547C18.89 113.67 19.3943 114.561 20.2538 115.219C21.1162 115.879 22.1091 116.135 23.2326 115.986ZM55.8581 101.868C56.3868 101.798 56.8714 101.649 57.3118 101.421C57.7527 101.195 58.145 100.858 58.4889 100.409L70.696 84.4631C71.4411 83.4899 71.7296 82.4926 71.5617 81.4711C71.3915 80.4527 70.8572 79.5996 69.9589 78.9119C69.0605 78.2241 68.0655 77.9528 66.9737 78.0977C65.8846 78.2424 64.9962 78.7639 64.3085 79.6622L54.5943 92.3514L51.3378 89.8584C50.4395 89.1707 49.4637 88.9129 48.4105 89.085C47.3577 89.2598 46.4874 89.7964 45.7997 90.6947C45.1781 91.5843 44.9203 92.56 45.0263 93.622C45.135 94.6836 45.6385 95.5582 46.5369 96.246L52.9376 101.146C53.3868 101.49 53.8536 101.713 54.338 101.816C54.8227 101.921 55.3294 101.938 55.8581 101.868ZM17.4085 132.899C15.2276 133.189 13.2583 132.661 11.5005 131.315C9.73975 129.967 8.71456 128.203 8.42496 126.022L1.05312 70.5095C0.763512 68.3286 1.29268 66.3578 2.64062 64.5971C3.98627 62.8393 5.74953 61.8156 7.93038 61.526L71.3734 53.101C73.5543 52.8114 75.5249 53.3393 77.2853 54.6846C79.0435 56.0329 80.0673 57.7974 80.3569 59.9783L87.7288 115.491C88.0184 117.672 87.4905 119.642 86.1452 121.403C84.7969 123.161 83.0324 124.185 80.8515 124.474L17.4085 132.899Z" fill="#2F2E41"/>
<defs>
<clipPath id="clip0_247_60">
<rect width="265" height="170" fill="white" transform="translate(127.391)"/>
</clipPath>
</defs>
</svg>
