<svg width="17" height="17" viewBox="0 0 17 17" fill="none" xmlns="http://www.w3.org/2000/svg">
<path d="M16 14.5184V8.72101C16 8.31767 15.9167 7.91856 15.7551 7.54814C15.5935 7.17772 15.3571 6.84379 15.0602 6.56679L9.5305 1.40498C9.252 1.14491 8.88327 1 8.5 1C8.11673 1 7.748 1.14491 7.4695 1.40498L1.93975 6.56679C1.64292 6.84379 1.40646 7.17772 1.24487 7.54814C1.08328 7.91856 0.999957 8.31767 1 8.72101V14.5184C1 14.9114 1.15804 15.2882 1.43934 15.5661C1.72064 15.8439 2.10218 16 2.5 16H14.5C14.8978 16 15.2794 15.8439 15.5607 15.5661C15.842 15.2882 16 14.9114 16 14.5184Z" fill="white" stroke="#142B33" stroke-width="2" stroke-linecap="round" stroke-linejoin="round"/>
</svg>
