<svg width="12" height="16" viewBox="0 0 12 16" fill="none" xmlns="http://www.w3.org/2000/svg">
<path d="M8.99699 12.5714H3.00288V13.7143H8.99699V12.5714ZM7.79817 14.8571H4.2017V16H7.79817V14.8571ZM5.99993 0C7.58967 0 9.1143 0.602039 10.2384 1.67368C11.3625 2.74531 11.994 4.19876 11.994 5.71429C12.0346 6.54476 11.8677 7.37255 11.5071 8.12954C11.1466 8.88654 10.6027 9.5511 9.92008 10.0686C9.32067 10.6 8.99699 10.9029 8.99699 11.4286H7.79817C7.79817 10.3771 8.46351 9.78857 9.11088 9.22286C9.67111 8.81387 10.1176 8.28016 10.4113 7.66848C10.7049 7.0568 10.8367 6.38581 10.7952 5.71429C10.7952 4.50187 10.29 3.33911 9.39072 2.4818C8.49142 1.62449 7.27172 1.14286 5.99993 1.14286C4.72814 1.14286 3.50844 1.62449 2.60915 2.4818C1.70986 3.33911 1.20465 4.50187 1.20465 5.71429C1.16382 6.38631 1.29658 7.05762 1.59129 7.66933C1.886 8.28105 2.33365 8.81448 2.89498 9.22286C3.53636 9.79429 4.2017 10.3657 4.2017 11.4286H3.00288C3.00288 10.9029 2.68519 10.6 2.07979 10.0629C1.39769 9.54628 0.854003 8.88269 0.493443 8.12669C0.132885 7.37069 -0.0342379 6.54388 0.00582314 5.71429C0.00582314 4.96388 0.160865 4.22081 0.462097 3.52752C0.76333 2.83423 1.20485 2.2043 1.76146 1.67368C2.31806 1.14306 2.97885 0.722144 3.70609 0.434974C4.43333 0.147804 5.21278 0 5.99993 0Z" fill="#142B33"/>
</svg>
