<svg width="31" height="31" viewBox="0 0 31 31" fill="none" xmlns="http://www.w3.org/2000/svg">
<path fill-rule="evenodd" clip-rule="evenodd" d="M3.72 0C1.6655 0 0 1.6655 0 3.72V27.28C0 29.3345 1.6655 31 3.72 31H27.28C29.3345 31 31 29.3345 31 27.28V3.72C31 1.6655 29.3345 0 27.28 0H3.72ZM11.5979 21.4143C11.7684 21.5279 12.0014 21.5848 12.2969 21.5848C12.6152 21.5848 12.8596 21.5223 13.0301 21.3972C13.2119 21.2608 13.3427 21.1131 13.4222 20.9539C13.5018 20.7948 13.5473 20.6868 13.5586 20.63L15.5194 14.2703L17.4801 20.63C17.5029 20.6868 17.5483 20.7948 17.6165 20.9539C17.6961 21.1017 17.8268 21.2438 18.0087 21.3802C18.1905 21.5166 18.4349 21.5848 18.7418 21.5848C19.0601 21.5848 19.2988 21.5279 19.4579 21.4143C19.6284 21.3006 19.7478 21.1756 19.816 21.0392C19.8955 20.8914 19.9467 20.7834 19.9694 20.7152L23.1748 11.423C23.2658 11.1047 23.3055 10.849 23.2942 10.6557C23.2942 10.4511 23.226 10.2806 23.0896 10.1442C22.9532 10.0078 22.7145 9.87712 22.3735 9.75209C22.0552 9.63842 21.7881 9.59295 21.5721 9.61569C21.3675 9.63842 21.197 9.72935 21.0606 9.88849C20.9356 10.0363 20.8219 10.2693 20.7196 10.5875L18.6054 16.9301L16.7981 10.6387C16.764 10.5591 16.7129 10.4455 16.6447 10.2977C16.5765 10.1499 16.4514 10.0135 16.2696 9.88849C16.0991 9.76345 15.8376 9.70093 15.4853 9.70093C15.1784 9.70093 14.9397 9.75776 14.7692 9.87143C14.5987 9.9851 14.4736 10.1158 14.3941 10.2636C14.3259 10.4113 14.2747 10.5421 14.2406 10.6557L12.4504 16.896L10.3191 10.5705C10.2168 10.2522 10.0975 10.0192 9.96108 9.87143C9.83604 9.72367 9.67122 9.6441 9.46663 9.63273C9.27339 9.62137 9.01764 9.66683 8.69938 9.76913C8.21061 9.92827 7.91508 10.1272 7.81277 10.3659C7.71047 10.5932 7.73321 10.9456 7.88098 11.423L11.0864 20.7152C11.1091 20.7721 11.1546 20.8744 11.2228 21.0221C11.3023 21.1699 11.4274 21.3006 11.5979 21.4143Z" fill="#2684FF"/>
</svg>
