<svg width="31" height="31" viewBox="0 0 31 31" fill="none" xmlns="http://www.w3.org/2000/svg">
<path fill-rule="evenodd" clip-rule="evenodd" d="M3.72 0C1.6655 0 0 1.6655 0 3.72V27.28C0 29.3345 1.6655 31 3.72 31H27.28C29.3345 31 31 29.3345 31 27.28V3.72C31 1.6655 29.3345 0 27.28 0H3.72ZM5.69638 19.5557C5.82224 19.6419 6.03071 19.685 6.32176 19.685C6.61281 19.685 6.82127 19.6419 6.94712 19.5557C7.07298 19.4696 7.15165 19.3599 7.18311 19.2267C7.21458 19.0857 7.23031 18.9408 7.23031 18.7919V17.2525H8.74063C9.07102 17.2525 9.40533 17.1938 9.74358 17.0763C10.0818 16.9509 10.3925 16.7707 10.6757 16.5357C10.9668 16.2929 11.1988 15.9912 11.3719 15.6309C11.5528 15.2705 11.6433 14.8514 11.6433 14.3735C11.6433 13.8878 11.5528 13.4648 11.3719 13.1044C11.1988 12.744 10.9668 12.4424 10.6757 12.1996C10.3925 11.9489 10.0818 11.7648 9.74358 11.6473C9.4132 11.5297 9.08282 11.471 8.75243 11.471H6.33355C6.0425 11.471 5.83404 11.5141 5.70819 11.6002C5.58233 11.6864 5.50366 11.8 5.4722 11.941C5.44073 12.0742 5.425 12.2152 5.425 12.3641V18.7802C5.425 18.929 5.44073 19.0739 5.4722 19.215C5.50366 19.356 5.57839 19.4696 5.69638 19.5557ZM8.75243 15.4664H7.23031V13.2571H8.74063C8.96089 13.2571 9.15361 13.3042 9.31881 13.3982C9.49186 13.4922 9.62559 13.6214 9.71999 13.7859C9.81438 13.9505 9.86158 14.1424 9.86158 14.3617C9.86158 14.6203 9.80258 14.8318 9.68459 14.9963C9.57446 15.1608 9.43286 15.2823 9.25981 15.3606C9.09461 15.4311 8.92549 15.4664 8.75243 15.4664ZM12.6897 19.5557C12.8155 19.6419 13.0161 19.685 13.2914 19.685H15.3917C15.9738 19.685 16.5087 19.5792 16.9964 19.3677C17.492 19.1562 17.9247 18.8663 18.2944 18.4981C18.6641 18.1221 18.9512 17.6834 19.1557 17.182C19.3603 16.6728 19.4625 16.1244 19.4625 15.5369C19.4625 14.9571 19.3603 14.4205 19.1557 13.927C18.9512 13.4334 18.6641 13.0025 18.2944 12.6343C17.9247 12.2661 17.496 11.9802 17.0082 11.7765C16.5205 11.5728 15.9935 11.471 15.4271 11.471H13.3032C13.0122 11.4631 12.8037 11.5023 12.6779 11.5885C12.552 11.6747 12.4733 11.7883 12.4419 11.9293C12.4104 12.0625 12.3947 12.2035 12.3947 12.3523V18.7802C12.3947 18.9368 12.4143 19.0857 12.4537 19.2267C12.493 19.3599 12.5717 19.4696 12.6897 19.5557ZM15.4271 17.8871H14.1882V13.2571H15.4153C15.848 13.2571 16.2334 13.359 16.5717 13.5627C16.9099 13.7585 17.1774 14.0327 17.374 14.3853C17.5707 14.7378 17.669 15.1373 17.669 15.5839C17.669 16.0304 17.5707 16.426 17.374 16.7707C17.1774 17.1154 16.9099 17.3896 16.5717 17.5933C16.2334 17.7892 15.8519 17.8871 15.4271 17.8871ZM20.6659 19.5675C20.7918 19.6458 20.9963 19.685 21.2795 19.685C21.5784 19.685 21.7868 19.6458 21.9048 19.5675C22.0307 19.4813 22.1094 19.3716 22.1408 19.2385C22.1723 19.0975 22.188 18.9525 22.188 18.8037V16.3242H24.5951C24.7603 16.3242 24.9019 16.3124 25.0199 16.2889C25.1457 16.2654 25.2441 16.2028 25.3149 16.1009C25.3857 15.9912 25.4211 15.8111 25.4211 15.5604C25.4211 15.3018 25.3857 15.1177 25.3149 15.0081C25.2441 14.8984 25.1457 14.8318 25.0199 14.8083C24.9019 14.7848 24.7642 14.773 24.6069 14.773H22.188V13.2571H24.5114C24.6688 13.2571 24.8143 13.2454 24.948 13.2219C25.0896 13.1906 25.2037 13.1122 25.2902 12.9869C25.3767 12.8615 25.42 12.6578 25.42 12.3758C25.42 12.0781 25.3767 11.8666 25.2902 11.7413C25.2115 11.6159 25.1054 11.5415 24.9716 11.518C24.8379 11.4867 24.6924 11.471 24.5351 11.471H21.3149C20.9688 11.471 20.7288 11.5337 20.5951 11.659C20.4614 11.7843 20.3945 12.0194 20.3945 12.3641V18.7919C20.3945 18.9408 20.4063 19.0857 20.4299 19.2267C20.4614 19.3677 20.54 19.4813 20.6659 19.5675Z" fill="#EA3434"/>
</svg>
